<?xml version="1.0" encoding="UTF-8"?>
<svg id="_图层_1" data-name="图层 1" xmlns="http://www.w3.org/2000/svg" viewBox="0 0 100 100">
  <defs>
    <style>
      .cls-1 {
        fill: #666;
        stroke-width: 0px;
      }
    </style>
  </defs>
  <path class="cls-1" d="M25.99,79.81c.82-4.66,1.7-10.19,2.78-15.69.53-2.67.17-4.73-2.01-6.67-4.01-3.57-7.86-7.33-11.54-11.24-1.05-1.12-1.92-3.12-1.67-4.5.18-.99,2.26-2.08,3.65-2.34,5.74-1.11,11.56-1.79,17.29-2.94,1.43-.29,3.14-1.49,3.84-2.76,2.77-5.02,5.08-10.3,7.81-15.35.66-1.23,2.33-2.76,3.43-2.68,1.35.09,3.08,1.46,3.79,2.75,2.71,4.92,4.92,10.1,7.65,15.01.76,1.37,2.53,2.72,4.05,3.03,5.84,1.21,11.79,1.9,17.67,2.96,3.95.71,4.86,3.49,2.05,6.38-4.01,4.12-8.37,7.89-12.24,12.13-1.22,1.33-1.99,3.75-1.8,5.55.51,4.94,1.66,9.8,2.51,14.71.19,1.1.31,2.24.26,3.35-.14,3.11-2.27,4.48-5.1,3.08-5.37-2.65-10.56-5.66-16-8.15-1.51-.69-3.88-.66-5.41.03-5.22,2.37-10.2,5.25-15.33,7.82-3.67,1.84-5.77.45-5.69-4.48Z"/>
</svg>