<?xml version="1.0" encoding="utf-8"?>
<!-- Generator: Adobe Illustrator 28.4.1, SVG Export Plug-In . SVG Version: 6.00 Build 0)  -->
<svg version="1.1" id="图层_1" xmlns="http://www.w3.org/2000/svg" xmlns:xlink="http://www.w3.org/1999/xlink" x="0px" y="0px"
	 viewBox="0 0 100 100" style="enable-background:new 0 0 100 100;" xml:space="preserve">
<style type="text/css">
	.st0{fill:#666666;}
</style>
<path class="st0" d="M49.7,75.2c-15.9-0.4-27.5-7.6-35.3-21.4c-1.4-2.4-1.4-4.6,0-7C22.2,32.8,34.1,25.3,50,25.4
	c15.7,0.1,27.5,7.7,35.2,21.6c1.4,2.5,1.2,4.6-0.1,7C77.2,67.8,65.5,74.9,49.7,75.2z M32.2,50.3c0,9.6,8.1,17.7,17.6,17.6
	c9.4-0.1,17.4-8.2,17.4-17.5c0-9.7-7.9-17.6-17.7-17.5C40,33,32.2,40.8,32.2,50.3z"/>
<path class="st0" d="M49.6,59.9c-5.5,0-9.4-4.1-9.4-9.8c0-5.6,4.1-9.4,9.8-9.3c5.4,0.1,9.3,4,9.3,9.5C59.3,55.9,55.2,60,49.6,59.9z"
	/>
</svg>
